# xmcd CD database file
#
# Track frame offsets:
#	150
#	11718
#	23552
#	35147
#	48499
#	61375
#	70502
#	80489
#	90981
#	99668
#	108896
#	121129
#
# Disc length: 1792 seconds
#
# Revision: 7
# Processed by: cddbd v1.5.2PL0 Copyright (c) Steve Scherf et al.
# Submitted via: CDex 1.51
#
DISCID=8e06fe0c
DTITLE=Johnny Cash - The Very Best Of Johnny Cash [CD 2) The Love Songs
DYEAR=2006
DGENRE=Country
TTITLE0=A Thing Called Love
TTITLE1=Flesh And Blood
TTITLE2=I Still Miss Someone
TTITLE3=If I Were A Carpenter
TTITLE4=My Old Faded Rose
TTITLE5=Oh, What A Dream
TTITLE6=All Over Again
TTITLE7=While I've Got It On My Mind
TTITLE8=A Little At A Time
TTITLE9=I Feel Better All Over
TTITLE10=Understand Your Man
TTITLE11=Happiness Is You
EXTD=YEAR: 2006
EXTT0=
EXTT1=
EXTT2=
EXTT3=
EXTT4=
EXTT5=
EXTT6=
EXTT7=
EXTT8=
EXTT9=
EXTT10=
EXTT11=
PLAYORDER=
